<?xml version="1.0" encoding="utf-8"?>
<!-- Generator: Adobe Illustrator 26.2.1, SVG Export Plug-In . SVG Version: 6.00 Build 0)  -->
<svg version="1.1" id="Calque_1" xmlns="http://www.w3.org/2000/svg" xmlns:xlink="http://www.w3.org/1999/xlink" x="0px" y="0px"
	 width="768px" height="768px" viewBox="0 0 768 768" style="enable-background:new 0 0 768 768;" xml:space="preserve">
<style type="text/css">
	.st0{fill:#E8E7E7;}
</style>
<rect x="17.7" y="17.7" width="732.5" height="732.5"/>
<g>
	<g>
		<path class="st0" d="M656.3,228.3c0-12.7,8.3-21.1,20.8-21.1c12.5,0,20.8,8.5,20.8,21.1s-8.3,21.1-20.8,21.1
			C664.7,249.4,656.3,241,656.3,228.3z M692.5,228.3c0-11.2-4.6-16.3-15.4-16.3c-10.9,0-15.4,5-15.4,16.3s4.6,16.3,15.4,16.3
			C688,244.5,692.5,239.5,692.5,228.3z M666.8,228.3c0-6.7,4-11.4,10.7-11.4c5.9,0,10,3.8,10,9.1v0.5h-5.1v-0.4
			c0-3.4-1.7-4.6-4.9-4.6c-4,0-5.6,1.9-5.6,6.7c0,4.8,1.6,6.7,5.6,6.7c3.2,0,4.9-1.3,4.9-4.6V230h5.1v0.5c0,5.3-4.1,9.1-10,9.1
			C670.8,239.6,666.8,235,666.8,228.3z"/>
	</g>
	<path class="st0" d="M111.2,536V235.5h122.5c61.9,0,104.1,31.8,104.1,87.5c0,51.1-35.4,82.1-89.3,83.4v2.7
		c18.8,5.8,31.4,18.4,41.7,36.8l51.6,90.2h-37.2l-48.4-84.3c-14.8-26-30.5-38.1-69.5-38.1H143V536H111.2z M143,386.2h95.5
		c46.2,0,66.8-18.4,66.8-61c0-41.3-20.6-60.6-66.8-60.6H143V386.2z"/>
	<path class="st0" d="M441.6,245.4c-80.5,40.2-113.2,138-73,218.5c40.2,80.5,138,113.2,218.5,73s113.2-138,73-218.5
		C620,237.9,522.1,205.3,441.6,245.4z M516.9,263.7c15.1,0.2,30.7,12.4,42.9,33.5c14.6,25.2,22.7,60.5,22.2,96.8
		c-0.8,65.1-27.2,112.1-52.8,124.9c-5.2,2.6-10.2,3.8-15.4,3.8c-15.1-0.2-30.7-12.4-42.9-33.5c-14.6-25.2-22.7-60.5-22.2-96.8
		c0.8-65.1,27.2-112.1,52.8-124.9l-6.2-12.5c0,0,0,0,0,0l6.2,12.5C506.7,264.8,511.7,263.6,516.9,263.7z M391.3,452.7
		c-33.9-67.9-6.2-150.7,61.7-184.6c4.9-2.4,9.8-4.5,14.8-6.3c-26,27.1-43.7,75.2-44.3,130.3c-0.6,51.3,13.7,96.8,36.2,125.3
		C430.9,504.9,406.3,482.7,391.3,452.7z M575.9,514.3c-2.2,1.1-4.4,2.1-6.7,3.1c22.6-28,37.5-72.7,38.1-123.2
		c0.6-54.2-15.4-102-40.1-129.9c29.5,12.3,54.9,34.7,70.2,65.5C671.4,397.6,643.7,480.4,575.9,514.3z"/>
</g>
</svg>
